<svg xmlns="http://www.w3.org/2000/svg" xmlns:xlink="http://www.w3.org/1999/xlink" version="1.1" x="0px" y="0px"
     viewBox="0 0 115 115" enable-background="new 0 0 115 115" xml:space="preserve">
        <path fill="blue" d="M57,107.743c-27.57,0-50-22.43-50-50c0-27.57,22.43-50,50-50c27.57,0,50,22.43,50,50C107,85.313,84.57,107.743,57,107.743z   M57,10.534c-26.031,0-47.209,21.178-47.209,47.209c0,26.031,21.178,47.209,47.209,47.209s47.21-21.179,47.21-47.209  C104.21,31.712,83.031,10.534,57,10.534z"/>
        <path fill="blue" d="M67.896,16.965v9.349c0,0.512-0.419,0.93-0.931,0.93h-19.93c-0.511,0-0.93-0.418-0.93-0.93v-9.349  C28.076,21.77,14.793,38.205,14.793,57.747c0,23.31,18.896,42.207,42.207,42.207c23.311,0,42.207-18.896,42.207-42.207  C99.207,38.205,85.924,21.77,67.896,16.965z M28.862,66.002c-2.166,0-3.981-1.484-4.499-3.488H23.36  c-1.535,0-2.791-0.523-2.791-1.163c0-0.639,1.256-1.162,2.791-1.162h1.003c0.518-2.005,2.333-3.488,4.499-3.488  s3.981,1.483,4.498,3.488h0.852c1.535,0,2.791,0.523,2.791,1.162c0,0.64-1.256,1.163-2.791,1.163H33.36  C32.843,64.518,31.028,66.002,28.862,66.002z M39.327,82.978c-0.528,0-1.033-0.092-1.505-0.254l-0.511,0.884  c-0.768,1.329-1.849,2.155-2.402,1.836c-0.554-0.32-0.379-1.669,0.389-2.999l0.581-1.006c-0.744-0.825-1.202-1.914-1.202-3.111  c0-2.568,2.083-4.651,4.651-4.651c0.334,0,0.659,0.037,0.973,0.104l0.423-0.732c0.768-1.329,1.848-2.155,2.402-1.836  c0.554,0.32,0.379,1.669-0.388,2.999l-0.355,0.615c0.976,0.854,1.597,2.104,1.597,3.502C43.978,80.895,41.894,82.978,39.327,82.978z   M58.163,89.801v1.161c0,1.534-0.523,2.79-1.163,2.79s-1.163-1.256-1.163-2.79v-1.161c-2.004-0.517-3.488-2.332-3.488-4.498  c0-2.165,1.484-3.98,3.488-4.498V80.11c0-1.535,0.523-2.791,1.163-2.791s1.163,1.256,1.163,2.791v0.694  c2.004,0.518,3.487,2.333,3.487,4.498C61.65,87.469,60.167,89.284,58.163,89.801z M79.013,85.443  c-0.554,0.319-1.635-0.507-2.402-1.836l-0.496-0.86c-0.454,0.147-0.938,0.23-1.441,0.23c-2.567,0-4.65-2.083-4.65-4.65  c0-1.373,0.599-2.603,1.545-3.454l-0.383-0.663c-0.768-1.33-0.941-2.679-0.389-2.999c0.554-0.319,1.635,0.507,2.402,1.836  l0.434,0.75c0.335-0.076,0.683-0.121,1.041-0.121c2.568,0,4.651,2.083,4.651,4.651c0,1.223-0.477,2.334-1.25,3.164l0.55,0.953  C79.392,83.774,79.566,85.123,79.013,85.443z M90.561,62.514h-0.925c-0.517,2.004-2.332,3.488-4.498,3.488  c-2.165,0-3.98-1.484-4.498-3.488h-0.932c-1.534,0-2.79-0.523-2.79-1.163c0-0.639,1.256-1.162,2.79-1.162h0.932  c0.518-2.005,2.333-3.488,4.498-3.488c2.166,0,3.981,1.483,4.498,3.488h0.925c1.535,0,2.791,0.523,2.791,1.162  C93.352,61.99,92.096,62.514,90.561,62.514z"/>
        <text x="45" y="65" fill="#ffffff" font-size="35px" font-weight="bold"
              font-family="'Helvetica Neue', Helvetica, Arial-Unicode, Arial, Sans-serif">P</text>
</svg>